<svg id="Layer_1" data-name="Layer 1" xmlns="http://www.w3.org/2000/svg" viewBox="0 0 519.03 519.03"><defs><style>.cls-1{fill:#1d1d1b;}</style></defs><title>la fratelli logo </title><g id="_Group_" data-name="&lt;Group&gt;"><path id="_Compound_Path_" data-name="&lt;Compound Path&gt;" class="cls-1" d="M195.08,390.14l-1.57-1.89q18.21-18.47,50.22-22.24,26-47.85,41.3-70.77a180.27,180.27,0,0,1,37-40.34l1.6,1.43q-26.57,29.12-37,46.28t-30.49,62.51l10.3-1.66q5.55-15.52,10.9-23.54T289,332.15q7.74.3,7.3,11.93a18.52,18.52,0,0,1-7.77,15,44.5,44.5,0,0,1-17.87,7.52q-2.19,13.62-3.82,30.22l-9.92,4.64q5.46-25.59,8.43-34.15l-10.62,1.41q-25.63,60.65-60,88.76T120.45,484q-14.51-.55-23.07-7.63t-8-21a25.74,25.74,0,0,1,3.72-13q3.43-5.46,8.54-5.26a7.05,7.05,0,0,1,5.91,3,12.15,12.15,0,0,1,1.77,7.6q-.34,8.88-8.09,8.59-4.95-.19-6-10.05a18.5,18.5,0,0,0-3.33,9.23q-.39,10.25,7.9,17.54t22.15,7.82a73,73,0,0,0,33-6.59q16.2-7.24,31-21.51a212.44,212.44,0,0,0,28.51-34.85,422,422,0,0,0,27.39-48.36Q212.05,374.14,195.08,390.14Zm84.65-117.7,1.61,1a219.85,219.85,0,0,1-24,41.87q-13.68,18.54-28.83,28.22t-31.3,9.05q-26.72-1-25.58-30,.57-14.82,9.14-31.27t24.46-30.44a119.05,119.05,0,0,1,37.59-22.05q21.69-8.06,48.06-7,12.53.48,33.78,5.88,20.41,5.58,34.27,6.12,16.14.63,31.25-10l1.25,1.88q-20.19,18.39-43.27,17.49-10.71-.42-33.2-7.91a214.89,214.89,0,0,0-21.32-5.85,96.3,96.3,0,0,0-14.87-1.72q-23.74-.93-43.39,7.67a104.25,104.25,0,0,0-33,22.23,108.67,108.67,0,0,0-20.68,28.64q-7.28,15-7.7,26-1,26,23.72,26.95,12.2.47,26.38-7.65t28.81-25.59Q267.49,298.45,279.73,272.44Zm-8.14,90.31q13.13-2.22,17.66-8.44c3-4.14,4.59-7.59,4.7-10.32q.33-8.43-5.44-8.66-4.78-.18-8.77,6.85T271.59,362.75Z" transform="translate(-42.61 -116.97)"/><path id="_Compound_Path_2" data-name="&lt;Compound Path&gt;" class="cls-1" d="M387.84,330.52l1.58,1.89q-18.21,18.46-50.22,22.24-26,47.85-41.3,70.76a179.84,179.84,0,0,1-37,40.34l-1.6-1.43q26.57-29.1,37-46.27t30.49-62.51l-10.3,1.65q-5.55,15.54-10.9,23.55T294,388.51q-7.75-.3-7.3-11.93a18.52,18.52,0,0,1,7.77-15,44.51,44.51,0,0,1,17.87-7.53q2.19-13.6,3.82-30.21l9.92-4.64q-5.46,25.59-8.43,34.15l10.62-1.42q25.63-60.65,60-88.75t74.25-26.57q14.5.57,23.06,7.63t8,21a25.87,25.87,0,0,1-3.72,13q-3.43,5.46-8.54,5.26a7.05,7.05,0,0,1-5.91-3,12.17,12.17,0,0,1-1.77-7.6q.35-8.89,8.09-8.59,4.95.19,6.05,10.05a18.53,18.53,0,0,0,3.33-9.23q.39-10.26-7.9-17.54T461,239.76a73.06,73.06,0,0,0-33,6.6,108.36,108.36,0,0,0-31,21.51,212.76,212.76,0,0,0-28.51,34.84,422,422,0,0,0-27.39,48.36Q370.88,346.53,387.84,330.52ZM303.2,448.22l-1.61-1a219.94,219.94,0,0,1,24-41.88q13.68-18.53,28.83-28.21t31.3-9.06q26.7,1,25.58,30-.57,14.82-9.14,31.26T377.7,459.79a119.07,119.07,0,0,1-37.59,22.06q-21.69,8.06-48.06,7-12.53-.48-33.78-5.88-20.41-5.58-34.27-6.13-16.14-.62-31.25,10L191.5,485q20.19-18.39,43.27-17.49,10.71.4,33.2,7.91a214.89,214.89,0,0,0,21.32,5.85A97.54,97.54,0,0,0,304.16,483q23.74.92,43.39-7.67a104.41,104.41,0,0,0,33.05-22.23,108.55,108.55,0,0,0,20.68-28.65q7.28-15,7.69-26,1-26-23.71-26.95-12.19-.48-26.38,7.65t-28.81,25.59Q315.45,422.21,303.2,448.22Zm8.14-90.31q-13.12,2.22-17.67,8.44T289,376.67q-.33,8.43,5.44,8.66,4.79.18,8.77-6.85T311.34,357.91Z" transform="translate(-42.61 -116.97)"/></g><g id="_Group_2" data-name="&lt;Group&gt;"><path id="_Compound_Path_3" data-name="&lt;Compound Path&gt;" class="cls-1" d="M302.13,636a258.61,258.61,0,1,1,101-20.39A258,258,0,0,1,302.13,636Zm0-503.41c-134.49,0-243.9,109.41-243.9,243.9s109.41,243.89,243.9,243.89S546,511,546,376.49,436.61,132.59,302.13,132.59Z" transform="translate(-42.61 -116.97)"/></g><g id="_Group_3" data-name="&lt;Group&gt;"><path id="_Compound_Path_4" data-name="&lt;Compound Path&gt;" class="cls-1" d="M302.13,614.19a237,237,0,1,1,92.52-18.68A236.17,236.17,0,0,1,302.13,614.19Zm0-470.75c-128.5,0-233,104.55-233,233.05s104.55,233,233.05,233,233-104.54,233-233S430.63,143.44,302.13,143.44Z" transform="translate(-42.61 -116.97)"/></g><g id="_Group_4" data-name="&lt;Group&gt;"><path id="_Compound_Path_5" data-name="&lt;Compound Path&gt;" class="cls-1" d="M136.86,255.08,138,253.6l18.54,14,8.82-11.69,1.37,1-9.94,13.17Z" transform="translate(-42.61 -116.97)"/><path id="_Compound_Path_6" data-name="&lt;Compound Path&gt;" class="cls-1" d="M170.65,244.63l-.05-.06c-2.63-2.71-1.79-6.5,1.59-9.77a21.81,21.81,0,0,1,4.87-3.63l-.55-.56c-2.55-2.64-5.48-2.43-8.16.17a12.2,12.2,0,0,0-3.08,5l-1.53-.66a14.68,14.68,0,0,1,3.54-5.61,7.87,7.87,0,0,1,5.51-2.56,6.89,6.89,0,0,1,4.9,2.4l7.89,8.13-1.23,1.19-2.11-2.17a8.25,8.25,0,0,1-2.58,7.31C177.23,246.19,173.28,247.34,170.65,244.63Zm9-10.85-1.44-1.48a24,24,0,0,0-5,3.7c-2.76,2.68-3.1,5.39-1.34,7.21l0,0c1.83,1.89,4.69,1.26,6.68-.68C181.25,240,181.94,236.16,179.64,233.78Z" transform="translate(-42.61 -116.97)"/><path id="_Compound_Path_7" data-name="&lt;Compound Path&gt;" class="cls-1" d="M199.85,195.89l15.32-8.59.83,1.49-13.7,7.69,5,8.91,12.31-6.9.84,1.49-12.31,6.91,5.53,9.85-1.62.9Z" transform="translate(-42.61 -116.97)"/><path id="_Compound_Path_8" data-name="&lt;Compound Path&gt;" class="cls-1" d="M233,186.84l1.63-.63,1.86,4.82a8.58,8.58,0,0,1,5.55-8l.7,1.79-.17.07c-3.92,1.51-6.21,5.79-4.08,11.31l2.68,6.94-1.63.63Z" transform="translate(-42.61 -116.97)"/><path id="_Compound_Path_9" data-name="&lt;Compound Path&gt;" class="cls-1" d="M256.86,192V192c-.89-3.67,1.76-6.51,6.34-7.61a22,22,0,0,1,6-.65l-.18-.76c-.86-3.57-3.49-4.88-7.12-4a12.23,12.23,0,0,0-5.2,2.75l-1-1.34a14.58,14.58,0,0,1,5.9-3,7.79,7.79,0,0,1,6,.6,6.87,6.87,0,0,1,3,4.55l2.66,11-1.66.4-.71-2.94a8.29,8.29,0,0,1-6,5C261.73,196.72,257.75,195.7,256.86,192Zm13.26-4.77-.49-2a24.15,24.15,0,0,0-6.18.65c-3.74.9-5.42,3.06-4.83,5.52l0,.07c.62,2.56,3.4,3.47,6.1,2.82C268.34,193.44,270.89,190.48,270.12,187.26Z" transform="translate(-42.61 -116.97)"/><path id="_Compound_Path_10" data-name="&lt;Compound Path&gt;" class="cls-1" d="M287.61,186.62l-1.22-11.83-2.62.27-.16-1.6,2.62-.27-.59-5.78,1.74-.17L288,173l6.34-.64.17,1.59-6.35.65,1.19,11.66c.27,2.59,1.89,3.35,4,3.14a6.17,6.17,0,0,0,2.59-.91l.17,1.63a6.72,6.72,0,0,1-2.88.94C290.38,191.35,288,190.06,287.61,186.62Z" transform="translate(-42.61 -116.97)"/><path id="_Compound_Path_11" data-name="&lt;Compound Path&gt;" class="cls-1" d="M307.68,180.79v-.07c.15-5.27,4-9.37,8.89-9.22,5.1.15,8.22,4.38,8.06,9.76a5.22,5.22,0,0,1-.06.71l-15.06-.45c.18,4.53,3.34,7.26,6.91,7.37a8.18,8.18,0,0,0,6.31-2.66l1.18,1.1a9.55,9.55,0,0,1-7.61,3.2C311.53,190.39,307.52,186.45,307.68,180.79Zm15.09-.45c-.14-3.67-2.14-7.12-6.3-7.24-3.6-.11-6.47,2.84-6.91,6.85Z" transform="translate(-42.61 -116.97)"/><path id="_Compound_Path_12" data-name="&lt;Compound Path&gt;" class="cls-1" d="M341.45,166.28l1.73.26-3.91,25.72-1.73-.26Z" transform="translate(-42.61 -116.97)"/><path id="_Compound_Path_13" data-name="&lt;Compound Path&gt;" class="cls-1" d="M360.45,170l1.69.42-6.24,25.25-1.7-.42Z" transform="translate(-42.61 -116.97)"/><path id="_Compound_Path_14" data-name="&lt;Compound Path&gt;" class="cls-1" d="M376.45,182.82l1.65.57-6,17.17L370.5,200Zm2.14-6.8,2.05.71-.78,2.25-2.05-.71Z" transform="translate(-42.61 -116.97)"/></g><g id="_Group_5" data-name="&lt;Group&gt;"><path id="_Compound_Path_15" data-name="&lt;Compound Path&gt;" class="cls-1" d="M227.39,553.33l1.71.73-9.76,23-1.7-.72Z" transform="translate(-42.61 -116.97)"/><path id="_Compound_Path_16" data-name="&lt;Compound Path&gt;" class="cls-1" d="M238,579l3.51-11.37-2.52-.78.47-1.53,2.52.78,1.71-5.55,1.67.51-1.71,5.55,6.09,1.88-.47,1.53-6.09-1.88-3.46,11.21c-.76,2.48.43,3.82,2.44,4.44a6.09,6.09,0,0,0,2.74.17l-.48,1.57a6.72,6.72,0,0,1-3-.26C238.73,584.42,237,582.29,238,579Z" transform="translate(-42.61 -116.97)"/><path id="_Compound_Path_17" data-name="&lt;Compound Path&gt;" class="cls-1" d="M259.18,584.15v-.07c.64-3.72,4.19-5.28,8.83-4.49a22,22,0,0,1,5.8,1.79l.14-.78c.61-3.61-1.28-5.85-5-6.48a12.07,12.07,0,0,0-5.86.48l-.38-1.62a14.57,14.57,0,0,1,6.62-.46,7.83,7.83,0,0,1,5.32,2.93,6.9,6.9,0,0,1,1,5.37L273.75,592l-1.69-.29.51-3a8.24,8.24,0,0,1-7.43,2.23C261.8,590.38,258.54,587.87,259.18,584.15Zm14.06.85.35-2a24.26,24.26,0,0,0-5.94-1.84c-3.79-.65-6.19.67-6.61,3.17v.07c-.45,2.6,1.75,4.53,4.49,5C269.17,590,272.68,588.27,273.24,585Z" transform="translate(-42.61 -116.97)"/><path id="_Compound_Path_18" data-name="&lt;Compound Path&gt;" class="cls-1" d="M292,567.54l1.75.09-1.42,26-1.74-.09Z" transform="translate(-42.61 -116.97)"/><path id="_Compound_Path_19" data-name="&lt;Compound Path&gt;" class="cls-1" d="M308.43,568.52l2.17-.07.07,2.39-2.17.07Zm.43,7.12,1.75-.06.56,18.17-1.75,0Z" transform="translate(-42.61 -116.97)"/><path id="_Compound_Path_20" data-name="&lt;Compound Path&gt;" class="cls-1" d="M326.16,587.57v-.07c-.54-3.74,2.36-6.32,7-7a21.56,21.56,0,0,1,6.07-.1l-.11-.78c-.53-3.63-3-5.17-6.73-4.63a12.24,12.24,0,0,0-5.43,2.27l-.86-1.42a14.67,14.67,0,0,1,6.16-2.48,7.79,7.79,0,0,1,6,1.14,6.9,6.9,0,0,1,2.58,4.81l1.64,11.21-1.69.25-.44-3a8.27,8.27,0,0,1-6.37,4.43C330.59,592.69,326.71,591.31,326.16,587.57ZM339.8,584l-.3-2a24.68,24.68,0,0,0-6.22.08c-3.81.56-5.67,2.56-5.31,5.07v.07c.38,2.61,3.07,3.76,5.82,3.36C337.47,590,340.28,587.31,339.8,584Z" transform="translate(-42.61 -116.97)"/><path id="_Compound_Path_21" data-name="&lt;Compound Path&gt;" class="cls-1" d="M354,569.4l1.67-.5,1,3.24a7.11,7.11,0,0,1,5.18-5.55c4.39-1.33,7.86.89,9.12,5l3.22,10.64-1.67.51-3.13-10.33c-1.08-3.58-3.81-5.33-7.32-4.26a6.23,6.23,0,0,0-4.16,8l3.05,10.06-1.67.5Z" transform="translate(-42.61 -116.97)"/><path id="_Compound_Path_22" data-name="&lt;Compound Path&gt;" class="cls-1" d="M396.32,545.34l8.93-5.49a9.83,9.83,0,0,1,7.26-1.58,6.61,6.61,0,0,1,4,3l0,.06c2.18,3.55.79,7.2-2.49,9.89l12.59,4.76-2,1.24-12.18-4.64-6.95,4.27,5.41,8.8-1.58,1ZM411.84,551c3.55-2.18,5.09-5.6,3.2-8.66l0-.06c-1.76-2.86-5.1-3.26-9-.89l-7.25,4.46,5.88,9.56Z" transform="translate(-42.61 -116.97)"/><path id="_Compound_Path_23" data-name="&lt;Compound Path&gt;" class="cls-1" d="M432.42,540.34l-.05-.06c-3.43-4-3.34-9.61.4-12.8s9-2.28,12.52,1.81a5.24,5.24,0,0,1,.43.56l-11.45,9.8c3.18,3.23,7.36,3.13,10.07.81a8.14,8.14,0,0,0,2.88-6.22l1.62,0a9.55,9.55,0,0,1-3.49,7.48C441.72,544.86,436.1,544.64,432.42,540.34Zm10.88-10.47c-2.58-2.63-6.38-3.84-9.55-1.13-2.73,2.34-2.88,6.45-.5,9.72Z" transform="translate(-42.61 -116.97)"/><path id="_Compound_Path_24" data-name="&lt;Compound Path&gt;" class="cls-1" d="M459.43,521.16l-8.83-8-1.77,2-1.19-1.08,1.77-1.95-4.31-3.89,1.17-1.3,4.31,3.89,4.28-4.73,1.19,1.07-4.28,4.74,8.7,7.86c1.93,1.74,3.64,1.22,5-.34a6,6,0,0,0,1.32-2.41l1.21,1.1a6.63,6.63,0,0,1-1.5,2.62C464.66,522.81,462,523.48,459.43,521.16Z" transform="translate(-42.61 -116.97)"/><path id="_Compound_Path_25" data-name="&lt;Compound Path&gt;" class="cls-1" d="M473.05,504.19l-.06,0c-3.1-2.16-3-6-.33-9.9a21.64,21.64,0,0,1,4.08-4.5l-.65-.45c-3-2.09-5.84-1.32-8,1.75a12.22,12.22,0,0,0-2.05,5.52l-1.62-.35a14.66,14.66,0,0,1,2.39-6.19,7.84,7.84,0,0,1,4.91-3.58,7,7,0,0,1,5.27,1.4l9.31,6.46-1,1.41L482.85,494a8.25,8.25,0,0,1-1.12,7.68C479.8,504.45,476.15,506.34,473.05,504.19Zm6.72-12.38-1.7-1.18a24.26,24.26,0,0,0-4.18,4.6c-2.2,3.16-2,5.89.07,7.33l.06,0c2.16,1.51,4.84.33,6.43-2C482.56,497.6,482.49,493.7,479.77,491.81Z" transform="translate(-42.61 -116.97)"/><path id="_Compound_Path_26" data-name="&lt;Compound Path&gt;" class="cls-1" d="M488.59,476.71l-10-4.92.77-1.57,9.68,4.78c3.35,1.66,6.49.87,8.12-2.42a6.24,6.24,0,0,0-3-8.53l-9.42-4.66.77-1.56,16.29,8.05-.78,1.56L498,466a7.1,7.1,0,0,1,.51,7.56C496.49,477.63,492.49,478.64,488.59,476.71Z" transform="translate(-42.61 -116.97)"/><path id="_Compound_Path_27" data-name="&lt;Compound Path&gt;" class="cls-1" d="M491,444l.56-1.65,4.89,1.65a8.58,8.58,0,0,1-2.58-9.37l1.82.62-.06.16c-1.35,4,.48,8.48,6.09,10.37l7,2.39-.56,1.65Z" transform="translate(-42.61 -116.97)"/><path id="_Compound_Path_28" data-name="&lt;Compound Path&gt;" class="cls-1" d="M509.62,427.28h-.07c-3.7-.76-5.15-4.36-4.21-9a22,22,0,0,1,2-5.74l-.77-.16c-3.59-.73-5.89,1.09-6.64,4.76a12.08,12.08,0,0,0,.3,5.87l-1.63.33a14.59,14.59,0,0,1-.25-6.64,7.85,7.85,0,0,1,3.1-5.22,6.92,6.92,0,0,1,5.4-.79l11.1,2.26-.34,1.68-3-.61a8.27,8.27,0,0,1,2,7.5C515.93,424.86,513.32,428,509.62,427.28Zm1.3-14-2-.41a24.1,24.1,0,0,0-2,5.88c-.77,3.77.48,6.2,3,6.71h.07c2.58.53,4.58-1.61,5.13-4.33C515.76,417.48,514.16,413.92,510.92,413.25Z" transform="translate(-42.61 -116.97)"/><path id="_Compound_Path_29" data-name="&lt;Compound Path&gt;" class="cls-1" d="M502,395l.1-1.75,3.38.19a7.13,7.13,0,0,1-3.46-6.75c.25-4.59,3.52-7.09,7.86-6.86l11.1.59-.09,1.75-10.78-.58c-3.74-.2-6.3,1.77-6.5,5.43a6.24,6.24,0,0,0,6.14,6.65l10.49.56-.09,1.74Z" transform="translate(-42.61 -116.97)"/><path id="_Compound_Path_30" data-name="&lt;Compound Path&gt;" class="cls-1" d="M515.76,362.85l-11.86.91.2,2.63-1.6.12-.2-2.63-5.79.45-.14-1.74,5.8-.45-.49-6.36,1.6-.12.48,6.36,11.69-.89c2.6-.2,3.4-1.8,3.24-3.9a6.07,6.07,0,0,0-.84-2.61l1.63-.13a6.66,6.66,0,0,1,.87,2.9C520.56,360.2,519.21,362.59,515.76,362.85Z" transform="translate(-42.61 -116.97)"/></g></svg>